<?xml version="1.0" standalone="no"?>
<!DOCTYPE svg PUBLIC "-//W3C//DTD SVG 20010904//EN"
 "http://www.w3.org/TR/2001/REC-SVG-20010904/DTD/svg10.dtd">
<svg version="1.0" xmlns="http://www.w3.org/2000/svg"
 width="799.000000pt" height="778.000000pt" viewBox="0 0 799.000000 778.000000"
 preserveAspectRatio="xMidYMid meet">

<g transform="translate(0.000000,778.000000) scale(0.100000,-0.100000)"
fill="#000000" stroke="none">
<path d="M4676 7753 c-7 -16 -26 -66 -42 -113 -26 -81 -28 -95 -28 -270 l0
-185 33 -95 c34 -94 34 -94 18 -141 -47 -131 -41 -238 18 -306 26 -30 40 -38
81 -42 l49 -6 -47 -26 c-46 -27 -73 -23 -61 7 4 10 0 12 -11 8 -20 -8 -30 -45
-21 -74 4 -14 1 -28 -11 -41 -9 -10 -18 -36 -19 -56 -2 -20 -7 -39 -13 -41 -6
-2 -9 -9 -6 -15 2 -7 -16 -32 -41 -57 -37 -36 -45 -41 -45 -24 0 11 7 30 16
42 19 27 4 29 -21 2 -17 -19 -18 -19 -54 11 -45 36 -187 97 -244 105 -31 4
-38 3 -27 -5 8 -6 22 -11 30 -11 24 0 157 -57 190 -81 32 -24 65 -67 57 -76
-3 -2 -40 12 -83 31 -79 37 -112 43 -339 66 -55 6 -149 19 -210 30 -60 11
-148 22 -195 26 -51 4 -107 16 -140 29 -95 38 -147 48 -218 42 -245 -22 -504
-186 -727 -462 -94 -116 -165 -183 -240 -228 -79 -47 -192 -151 -240 -222 -22
-31 -41 -52 -43 -47 -7 22 61 162 109 223 l50 64 -64 -67 c-35 -37 -80 -98
-100 -135 -35 -68 -87 -225 -87 -267 0 -11 -17 -55 -38 -97 -21 -41 -41 -86
-45 -98 -5 -22 -9 -23 -52 -17 -70 11 -113 33 -164 84 -64 65 -102 148 -111
242 l-7 75 -1 -60 c-2 -64 33 -182 62 -214 20 -22 21 -37 1 -21 -9 7 -15 8
-15 2 0 -23 96 -114 163 -155 48 -29 72 -50 72 -62 0 -34 -23 -27 -87 27 -177
151 -262 359 -243 602 12 157 50 259 132 357 l45 54 -54 -56 c-65 -67 -105
-147 -124 -247 -19 -98 -18 -256 2 -345 33 -148 128 -308 232 -393 31 -26 57
-49 57 -53 -1 -3 -10 -35 -22 -71 -11 -36 -26 -97 -33 -136 -11 -63 -11 -75 4
-104 25 -52 21 -68 -21 -79 -80 -22 -201 -7 -283 35 -106 54 -200 172 -200
251 0 42 21 85 56 112 15 12 22 21 17 21 -20 0 -73 -64 -83 -99 -11 -43 6
-121 39 -174 33 -54 116 -126 179 -155 50 -24 69 -27 162 -27 58 0 120 3 138
7 28 7 33 5 30 -9 -2 -11 -21 -21 -53 -30 -197 -51 -398 53 -492 256 -41 86
-50 156 -30 229 15 56 7 71 -13 22 -7 -18 -11 -60 -9 -108 3 -66 10 -90 41
-153 42 -84 97 -152 156 -192 45 -32 216 -100 314 -126 l67 -17 5 -181 c3
-132 9 -191 20 -218 15 -34 15 -46 -1 -139 -12 -72 -17 -159 -18 -301 0 -213
6 -259 52 -380 15 -38 32 -97 39 -130 11 -57 12 -58 14 -20 l1 40 20 -45 c11
-25 24 -54 29 -65 18 -37 -2 37 -21 80 -29 63 -22 68 22 20 23 -25 44 -43 47
-40 3 3 -8 20 -25 38 -77 81 -104 188 -104 410 1 89 4 164 8 168 10 10 41 -16
77 -63 20 -27 36 -72 57 -160 18 -74 46 -156 70 -207 39 -80 40 -86 36 -166
-4 -87 -14 -112 -65 -167 -18 -19 -29 -25 -37 -18 -9 8 -11 4 -8 -13 5 -26
-19 -52 -40 -44 -8 3 -24 43 -37 89 -13 45 -27 87 -32 93 -11 12 -11 14 17
-95 17 -68 21 -98 13 -107 -8 -10 -7 -13 4 -13 7 0 27 -30 42 -66 16 -37 47
-85 68 -107 21 -22 38 -41 38 -42 0 -8 -153 -70 -185 -76 l-40 -6 35 -2 c36
-1 111 24 182 60 22 11 46 18 53 15 7 -2 12 1 11 7 0 7 4 12 9 12 6 0 10 -4
11 -10 0 -5 4 -17 7 -25 3 -8 11 -35 17 -60 13 -51 72 -164 103 -198 25 -27
77 -57 77 -44 0 5 -11 14 -24 20 -51 23 -144 201 -160 307 -7 44 -11 40 174
187 30 24 72 68 92 98 l38 53 0 -133 c0 -105 -3 -137 -15 -150 -24 -27 20 -64
95 -80 73 -16 231 -8 281 13 50 21 60 2 49 -89 -5 -38 -7 -85 -6 -104 1 -33 5
-36 51 -52 28 -9 74 -17 104 -17 l54 -1 -7 -65 -7 -65 91 0 c56 0 90 -4 90
-11 0 -5 15 -16 33 -24 49 -20 60 -37 50 -77 -7 -28 -9 -84 -4 -135 1 -6 10
-15 21 -18 12 -4 20 -15 20 -29 0 -26 21 -48 40 -44 7 2 17 -11 22 -29 5 -18
17 -34 29 -38 25 -8 37 1 21 17 -15 15 -16 48 -2 48 6 0 15 -12 21 -27 6 -16
26 -44 45 -64 l35 -35 -21 -27 c-13 -16 -31 -27 -46 -27 -13 0 -24 -4 -24 -10
0 -15 67 -12 99 4 15 8 33 22 41 30 10 12 16 14 26 5 18 -15 18 -9 -6 51 -23
58 -23 60 -11 60 5 0 14 -14 21 -30 15 -36 55 -70 81 -70 11 0 38 18 61 40 30
28 49 38 63 34 18 -4 17 -3 -4 16 -24 21 -23 42 1 23 20 -16 66 -24 73 -13 3
5 -2 10 -13 10 -10 0 -27 8 -36 19 -15 17 -15 19 -1 25 9 3 39 6 65 6 27 0 52
5 56 11 4 7 0 9 -13 5 -12 -4 -26 0 -36 11 -14 17 -13 19 21 35 20 10 49 22
65 28 15 5 27 14 27 20 0 13 -23 13 -37 -1 -8 -8 -13 -8 -18 0 -3 6 7 19 25
29 58 32 67 41 51 51 -11 7 -9 10 9 16 13 4 33 17 44 29 24 25 160 126 170
126 3 0 17 -21 31 -47 14 -27 45 -72 70 -100 24 -29 49 -71 56 -93 11 -36 9
-47 -24 -132 -47 -122 -115 -330 -121 -369 -1 -8 -11 -31 -23 -50 -11 -19 -35
-65 -52 -104 -79 -174 -155 -298 -221 -360 -31 -29 -127 -152 -161 -205 -9
-14 -30 -39 -47 -55 -18 -17 -32 -33 -32 -37 0 -9 -105 -142 -193 -246 -34
-40 -66 -81 -71 -90 -18 -36 -81 -128 -95 -139 -11 -10 -21 -6 -51 21 -20 18
-58 41 -85 51 -90 35 -233 -7 -331 -96 -30 -27 -60 -49 -68 -49 -13 0 -26 -41
-26 -86 0 -23 3 -24 68 -24 63 0 71 2 97 30 15 16 43 34 62 40 24 9 38 22 51
53 27 60 56 83 89 71 21 -7 26 -16 28 -48 2 -30 9 -45 31 -62 l28 -23 -29 -31
c-28 -29 -28 -30 -6 -30 12 0 31 5 42 10 13 7 19 7 19 0 0 -6 34 -10 89 -10
98 0 93 -4 106 73 7 45 96 217 176 342 79 123 338 428 323 380 -9 -31 -33 -87
-50 -117 -7 -14 -14 -31 -14 -38 0 -6 -9 -23 -20 -37 -19 -24 -19 -27 -3 -38
15 -11 15 -17 5 -39 -7 -15 -12 -35 -12 -45 0 -10 -8 -21 -18 -23 -12 -3 -28
-36 -51 -104 -19 -54 -45 -124 -58 -154 -14 -30 -33 -82 -44 -114 -11 -33 -24
-65 -30 -73 -10 -11 341 -13 2135 -13 l2146 0 0 593 c0 461 -3 596 -12 606
-10 10 -10 12 -1 7 9 -5 12 172 13 797 l0 804 -59 26 c-78 34 -226 41 -247 12
-38 -51 -67 -256 -68 -475 -1 -155 -5 -138 59 -258 9 -18 14 -36 11 -39 -4 -4
-12 8 -18 25 -7 18 -16 32 -20 32 -11 0 0 -44 23 -99 11 -25 19 -67 19 -100
l0 -56 -33 -2 c-24 -1 -53 14 -122 60 -49 34 -128 87 -175 118 -93 62 -129 96
-187 176 -78 107 -219 309 -247 353 -62 97 -100 140 -124 140 -39 0 -76 26
-147 102 -89 95 -169 204 -184 248 -7 22 -9 60 -5 103 l7 68 -51 48 c-28 27
-65 54 -81 61 -27 11 -32 22 -60 123 -29 105 -37 147 -27 147 2 0 11 3 20 6
10 4 19 -5 30 -29 23 -57 81 -113 142 -137 30 -13 57 -20 60 -18 2 3 -20 21
-50 41 -62 41 -141 138 -132 162 10 27 27 16 51 -37 20 -44 32 -55 77 -77 29
-13 78 -27 108 -30 41 -5 54 -10 52 -21 -1 -9 6 -6 18 8 17 21 24 22 52 14 18
-6 49 -13 69 -16 34 -6 40 -12 78 -89 22 -45 48 -113 57 -152 27 -116 32 -115
27 4 -3 74 -12 133 -24 169 -20 57 -18 72 7 72 33 0 141 73 186 125 21 24 74
130 82 165 6 25 6 25 -5 3 -7 -13 -16 -23 -20 -23 -5 0 -13 -17 -20 -38 -19
-66 -75 -131 -132 -157 -29 -13 -69 -26 -89 -29 l-37 -7 -40 78 c-47 94 -79
139 -160 225 -34 36 -61 72 -61 79 0 8 -23 50 -50 94 -27 44 -64 107 -81 140
-45 85 -70 117 -177 226 l-95 97 42 28 c36 23 44 25 52 13 8 -11 9 -9 5 6 -5
17 11 31 95 84 97 62 103 64 128 50 60 -34 137 -175 173 -316 17 -70 30 -78
22 -13 -8 58 -49 168 -86 229 -12 20 -42 57 -67 84 -24 26 -42 49 -40 51 13
12 200 122 293 171 l109 59 62 -11 c98 -17 113 -28 148 -111 33 -79 42 -88 26
-27 -6 22 -13 52 -16 67 -6 33 -55 64 -125 80 -46 11 -48 13 -31 26 17 13 16
14 -7 7 -14 -5 -42 -8 -62 -9 -25 0 -37 -4 -35 -13 1 -7 -65 -49 -149 -96 -83
-46 -171 -96 -196 -111 -31 -18 -48 -23 -53 -16 -4 6 -5 13 -4 14 127 101 296
199 359 208 14 1 20 6 15 10 -16 10 -133 -32 -199 -72 -32 -19 -90 -59 -129
-89 -62 -46 -78 -54 -112 -52 -36 1 -120 -16 -169 -35 -17 -6 -17 -5 -5 17 7
13 29 86 49 163 l36 138 36 13 c19 6 50 22 68 35 35 25 102 122 122 176 18 51
25 41 21 -28 -5 -69 -28 -123 -77 -177 l-31 -35 29 22 c16 12 36 22 46 22 27
0 48 31 65 95 19 74 19 121 0 194 -8 31 -19 106 -25 167 -5 61 -19 138 -31
170 -24 69 -19 132 12 160 12 10 26 28 31 39 8 15 3 13 -19 -8 l-31 -28 -7 57
c-4 31 -9 63 -12 70 -3 9 19 13 84 16 66 2 100 9 134 26 61 30 125 95 145 149
9 24 19 43 21 43 3 0 31 -20 63 -45 81 -62 102 -61 54 2 -46 61 -18 46 48 -26
35 -38 80 -98 99 -133 32 -59 34 -69 34 -154 0 -79 -3 -95 -24 -125 -32 -47
-83 -79 -126 -79 -22 0 -34 -4 -30 -10 8 -12 76 -13 107 -1 13 5 38 22 55 38
l32 30 3 -31 c3 -29 4 -27 23 24 29 80 27 240 -4 335 -54 164 -120 230 -303
303 -17 7 -28 21 -33 41 -5 24 -12 31 -29 31 -20 0 -22 -4 -18 -26 4 -24 2
-26 -19 -19 -13 4 -41 20 -61 36 -21 17 -38 25 -38 19 0 -16 -19 -12 -91 16
l-67 26 66 35 c75 40 107 67 160 135 26 35 38 44 45 35 6 -8 7 -6 3 6 -3 9 -3
30 0 46 6 28 8 29 77 34 100 8 137 21 191 68 56 49 76 85 76 135 0 31 -7 45
-45 80 l-44 43 37 11 c60 19 155 76 209 124 47 43 124 165 123 197 -1 8 -8 1
-17 -16 -29 -55 -133 -153 -116 -108 4 10 -20 -2 -59 -30 -68 -49 -142 -87
-168 -86 -8 0 19 17 60 39 124 63 193 134 220 227 9 30 9 46 2 59 -10 17 -11
16 -12 -9 0 -60 -83 -171 -164 -218 -37 -21 -39 -22 -32 -3 18 45 24 112 15
169 -17 110 -20 125 -28 125 -5 0 -4 -22 1 -49 10 -59 -15 -136 -66 -204 -32
-42 -140 -110 -162 -103 -6 3 -16 0 -21 -5 -16 -16 -184 10 -230 37 -23 13
-49 24 -58 24 -9 0 -37 12 -61 26 -40 24 -51 26 -105 20 -34 -4 -73 -12 -87
-17 -25 -10 -30 -7 -64 31 -21 24 -38 46 -38 51 0 14 82 31 119 25 103 -17
139 -18 202 -1 35 10 107 19 159 21 212 8 326 65 370 182 12 31 27 60 33 64
17 11 -23 10 -138 -3 -92 -11 -226 -42 -445 -102 -92 -26 -90 -26 -210 21 -90
35 -235 126 -266 168 -17 21 -33 33 -41 29 -8 -3 -28 4 -43 15 -27 19 -43 21
-194 20 -115 -1 -166 -5 -170 -13 -3 -9 -5 -8 -5 1 -1 9 -26 12 -90 12 -74 0
-92 -3 -103 -17 -25 -34 -73 -60 -123 -66 -66 -9 -180 -65 -230 -113 -22 -21
-43 -38 -47 -39 -4 0 -13 -6 -20 -14 -10 -10 -10 -12 0 -7 6 4 12 4 12 0 0
-12 -42 -75 -47 -70 -3 2 4 17 14 32 11 18 13 25 4 20 -16 -10 -74 -133 -92
-196 -30 -108 -49 -84 -49 63 0 90 4 121 26 185 27 80 53 131 88 170 15 17 27
21 48 17 24 -6 28 -3 28 14 0 20 -5 21 -109 21 l-109 0 -37 -51 c-83 -112
-129 -307 -130 -542 0 -75 -1 -137 -2 -137 -20 0 -73 240 -73 327 0 113 48
298 95 367 l24 36 -24 0 c-17 0 -29 -9 -39 -27z m964 3 c0 -2 -7 -7 -16 -10
-8 -3 -12 -2 -9 4 6 10 25 14 25 6z m405 -27 c11 -17 0 -20 -21 -4 -17 13 -17
14 -2 15 9 0 20 -5 23 -11z m-1161 -110 c-9 -24 -29 -87 -45 -139 l-29 -95 5
67 c6 73 24 133 56 185 28 45 33 37 13 -18z m1061 0 c60 -19 168 -86 167 -104
0 -15 -73 -37 -102 -32 -14 3 -52 13 -85 22 -70 19 -138 19 -174 1 -14 -8 -61
-25 -103 -39 l-77 -24 24 46 c30 60 109 148 138 154 38 8 150 -5 212 -24z
m-595 15 c0 -2 -13 -10 -30 -19 -16 -9 -30 -20 -30 -26 0 -17 -51 -79 -65 -79
-15 0 -126 -117 -162 -171 -15 -23 -34 -39 -45 -39 -17 0 -16 7 17 68 19 37
56 93 83 125 59 72 163 146 203 145 16 -1 29 -2 29 -4z m1773 -67 c-42 -71
-165 -135 -281 -144 l-63 -6 77 77 c98 99 105 103 199 119 92 16 100 10 68
-46z m-910 -27 c5 -4 4 -11 -2 -14 -6 -4 -27 10 -48 30 l-38 36 40 -23 c22
-12 44 -25 48 -29z m77 20 c44 -22 49 -30 23 -30 -17 0 -86 49 -70 50 4 0 26
-9 47 -20z m13 -72 l31 -22 -29 -8 c-23 -6 -34 -3 -52 14 -13 12 -23 25 -23
30 0 16 42 8 73 -14z m117 1 c10 -5 -1 -8 -31 -9 -28 0 -51 6 -58 14 -10 12
-5 13 31 9 24 -3 50 -9 58 -14z m-222 -18 c29 -25 28 -28 -8 -36 -30 -7 -100
10 -100 24 0 11 41 30 65 30 11 0 30 -8 43 -18z m-883 -31 c-9 -16 -20 -30
-26 -30 -6 0 -1 14 11 30 12 17 23 30 26 30 2 0 -2 -13 -11 -30z m1360 0 c-3
-5 -17 -10 -31 -10 -14 0 -22 4 -19 10 3 6 17 10 31 10 14 0 22 -4 19 -10z
m-1025 -50 c-8 -5 -19 -10 -25 -10 -5 0 -3 5 5 10 8 5 20 10 25 10 6 0 3 -5
-5 -10z m920 0 c18 -6 7 -8 -42 -9 -39 -1 -68 3 -68 9 0 12 74 12 110 0z
m-1764 -215 c-3 -8 -10 -15 -16 -15 -6 0 -10 41 -9 113 l1 112 15 -98 c8 -54
12 -105 9 -112z m2376 122 c-31 -71 -76 -114 -130 -126 -26 -5 -48 -8 -50 -6
-2 2 16 12 40 23 66 29 104 67 130 129 12 31 24 49 26 40 2 -9 -5 -36 -16 -60z
m-964 -11 c51 -33 84 -65 77 -77 -9 -14 -23 -11 -53 10 -15 11 -46 31 -70 45
-43 27 -48 46 -11 46 11 0 36 -11 57 -24z m116 -48 c-9 -14 -21 -9 -38 16
l-16 25 29 -17 c16 -9 27 -20 25 -24z m-1252 -25 c-6 -10 -13 -39 -17 -65 -4
-27 -12 -48 -17 -48 -5 0 -7 -4 -4 -9 7 -10 -22 -37 -30 -28 -12 12 7 73 38
124 31 48 51 66 30 26z m1492 8 c3 -5 -32 -9 -79 -10 -52 -1 -85 3 -85 9 0 12
157 14 164 1z m-224 -26 c0 -8 -7 -15 -16 -15 -14 0 -14 3 -4 15 7 8 14 15 16
15 2 0 4 -7 4 -15z m-976 -36 c-7 -12 -41 -11 -49 1 -4 6 -1 18 6 26 10 13 14
12 30 -2 10 -9 16 -21 13 -25z m-237 -41 c-3 -7 -5 -2 -5 12 0 14 2 19 5 13 2
-7 2 -19 0 -25z m-317 15 c0 -5 -4 -15 -10 -23 -11 -18 -25 -7 -17 15 6 15 27
21 27 8z m49 -77 c17 -28 21 -50 21 -127 0 -80 -2 -91 -14 -79 -19 21 -56 125
-56 160 0 25 18 80 26 80 1 0 12 -15 23 -34z m1586 4 c-3 -5 -10 -10 -16 -10
-5 0 -9 5 -9 10 0 6 7 10 16 10 8 0 12 -4 9 -10z m222 -26 c46 -11 119 -17
228 -18 121 -1 167 -5 190 -16 101 -51 -28 -218 -184 -237 -117 -14 -286 55
-322 132 -6 11 -16 31 -24 45 -8 14 -15 44 -15 68 0 40 1 42 29 42 17 0 60 -7
98 -16z m418 -4 c3 -5 -3 -10 -15 -10 -12 0 -18 5 -15 10 3 6 10 10 15 10 5 0
12 -4 15 -10z m-955 -18 c0 -13 -59 -102 -67 -102 -5 0 -15 13 -24 28 -9 16
-35 38 -59 50 l-43 21 54 4 c107 7 139 7 139 -1z m362 -64 l27 -63 -34 39
c-19 22 -35 50 -35 63 0 39 14 26 42 -39z m657 38 c18 -19 22 -31 16 -55 -7
-33 -25 -33 -25 0 0 11 -7 33 -15 49 -19 36 -7 39 24 6z m-950 -58 c-31 -67
-56 -98 -79 -98 -29 0 -35 21 -12 39 11 9 29 35 41 57 27 55 50 79 64 65 7 -7
3 -26 -14 -63z m-1508 30 c1 -7 2 -61 3 -120 1 -103 2 -108 33 -152 39 -56 25
-60 -27 -8 -29 28 -40 51 -49 93 -12 56 -11 71 11 157 10 40 26 56 29 30z
m809 -2 c0 -2 -7 -7 -16 -10 -8 -3 -12 -2 -9 4 6 10 25 14 25 6z m413 -16 c15
-12 36 -35 49 -53 20 -29 18 -28 -27 11 -46 41 -53 44 -92 38 -40 -5 -53 1
-36 17 14 15 81 6 106 -13z m574 -127 c62 -36 197 -80 272 -89 35 -4 65 -12
67 -18 18 -46 -99 -182 -197 -232 -64 -32 -75 -34 -161 -33 -59 1 -103 6 -120
15 -34 17 -98 75 -98 88 0 5 10 0 23 -12 30 -28 126 -72 159 -72 42 0 124 20
144 35 16 12 11 12 -30 0 -27 -8 -68 -15 -90 -15 -50 0 -116 17 -116 30 0 14
64 12 78 -2 9 -9 12 -8 12 5 0 12 -8 17 -27 17 -80 1 -165 80 -177 164 -8 52
3 75 79 157 l50 55 43 -33 c24 -18 64 -45 89 -60z m-864 10 c-7 -2 -21 -2 -30
0 -10 3 -4 5 12 5 17 0 24 -2 18 -5z m342 -68 c30 -14 29 -14 -24 -12 -33 1
-56 7 -59 15 -5 17 45 15 83 -3z m80 -158 c13 -32 20 -57 17 -55 -4 2 -18 9
-32 16 -31 16 -74 77 -65 92 4 6 18 10 32 8 19 -2 29 -15 48 -61z m55 30 c0
-5 -4 -5 -10 -2 -5 3 -10 14 -10 23 0 15 2 15 10 2 5 -8 10 -19 10 -23z m101
-27 c10 -22 14 -40 10 -40 -10 0 -41 62 -41 81 0 18 11 4 31 -41z m-401 -59
c51 -24 109 -68 75 -56 -96 34 -260 50 -360 36 -38 -6 -71 -8 -74 -5 -11 10
20 25 80 39 90 21 221 14 279 -14z m-1109 -64 c-13 -13 -26 -3 -16 12 3 6 11
8 17 5 6 -4 6 -10 -1 -17z m1369 -34 c0 -23 -26 -14 -38 12 -19 41 -14 50 13
25 14 -13 25 -29 25 -37z m-235 -45 c33 -16 68 -38 78 -48 18 -17 18 -17 -5
-15 -32 4 -188 83 -188 95 0 15 46 2 115 -32z m276 22 c12 -7 19 -21 19 -40 0
-39 -12 -38 -30 3 -7 17 -15 35 -18 40 -5 10 6 9 29 -3z m588 -61 c30 -10 58
-22 63 -27 4 -4 -32 -9 -81 -10 -101 -2 -156 -18 -238 -67 l-57 -34 -31 19
c-16 10 -32 29 -33 42 -2 13 -8 28 -14 35 -7 8 0 17 23 28 24 13 46 16 93 11
47 -5 73 -2 116 13 58 21 71 20 159 -10z m-3619 11 c-8 -5 -19 -10 -25 -10 -5
0 -3 5 5 10 8 5 20 10 25 10 6 0 3 -5 -5 -10z m1059 -95 c144 -21 238 -58 280
-109 24 -28 4 -29 -61 -4 -35 14 -106 37 -158 52 -52 15 -129 38 -170 51 -73
23 -74 24 -32 24 23 1 87 -6 141 -14z m2917 -58 c55 -34 122 -110 144 -162 18
-42 44 -155 37 -162 -2 -2 -21 32 -42 74 -31 65 -57 97 -151 191 -63 62 -114
114 -114 117 0 7 85 -32 126 -58z m-264 12 c27 -14 23 -23 -24 -55 -38 -25
-52 -29 -118 -29 -41 0 -95 6 -119 13 -40 12 -42 15 -28 29 9 9 46 27 84 40
54 19 80 22 128 18 32 -4 67 -11 77 -16z m-862 -104 c0 -24 -27 -17 -65 16
-50 44 -44 54 15 24 28 -14 50 -32 50 -40z m-650 28 c0 -16 3 -39 7 -52 9 -36
-13 -18 -37 29 -15 28 -16 40 -7 43 27 12 37 6 37 -20z m332 -15 c-8 -8 -9 -4
-5 13 4 13 8 18 11 10 2 -7 -1 -18 -6 -23z m1208 -13 c0 -3 -28 -23 -62 -45
-58 -38 -65 -40 -137 -40 -42 1 -86 6 -98 13 -18 10 -6 12 75 12 90 0 101 2
152 31 56 32 70 38 70 29z m-1203 -67 c-3 -8 -6 -5 -6 6 -1 11 2 17 5 13 3 -3
4 -12 1 -19z m158 -28 c15 -29 11 -61 -5 -43 -10 10 -24 73 -16 73 3 0 13 -14
21 -30z m-38 -38 c3 -13 3 -26 -1 -29 -11 -11 -24 11 -31 52 -6 38 -5 39 10
20 9 -11 18 -30 22 -43z m-511 -9 c58 -92 100 -137 185 -204 43 -34 79 -66 79
-70 0 -29 -67 -183 -84 -194 -41 -26 -175 -48 -254 -42 -72 5 -78 8 -110 44
-18 21 -46 58 -62 82 -28 42 -29 46 -14 63 16 16 15 20 -8 50 -16 22 -22 38
-17 48 4 8 10 23 13 33 3 9 15 17 26 17 11 0 32 7 45 16 21 14 25 24 25 67 0
51 19 87 47 87 7 0 13 8 13 18 0 17 36 38 67 41 7 1 29 -25 49 -56z m619 29
c-3 -3 -11 0 -18 7 -9 10 -8 11 6 5 10 -3 15 -9 12 -12z m705 -22 c12 -8 9
-10 -12 -10 -16 0 -28 5 -28 10 0 13 20 13 40 0z m-175 -136 c27 -58 16 -59
-35 -2 -27 31 -71 68 -96 83 l-47 28 29 12 c28 12 31 10 81 -38 29 -28 59 -65
68 -83z m-372 105 c20 -5 37 -14 37 -18 0 -5 -17 -5 -37 0 -21 5 -66 9 -100 9
-59 0 -81 8 -65 25 8 9 112 -1 165 -16z m-203 1 c0 -5 -4 -10 -10 -10 -5 0
-10 5 -10 10 0 6 5 10 10 10 6 0 10 -4 10 -10z m275 -73 c57 -20 56 -41 -7
-100 -64 -60 -138 -96 -138 -67 0 6 9 10 19 10 21 0 37 17 27 27 -3 4 -17 1
-29 -6 -13 -7 -39 -13 -58 -14 l-34 -2 -3 79 c-2 44 -1 84 1 91 6 14 166 2
222 -18z m141 1 l29 -31 -32 22 c-18 12 -33 27 -33 32 0 14 4 11 36 -23z
m-392 -15 c9 -55 7 -93 -4 -93 -11 0 -30 64 -30 103 0 42 26 34 34 -10z m-50
-12 c-6 -6 -24 19 -24 34 1 6 7 1 15 -9 8 -11 12 -22 9 -25z m428 -34 c48 -37
88 -90 88 -118 0 -23 -39 -43 -115 -59 -73 -15 -195 -3 -195 19 0 3 28 28 61
55 41 33 68 64 80 93 10 24 23 43 28 43 5 0 29 -15 53 -33z m-696 -54 c-6 -7
-55 28 -81 57 -12 14 1 8 33 -15 29 -21 51 -40 48 -42z m807 24 c59 -57 78
-94 56 -108 -17 -10 -42 19 -34 39 2 7 1 11 -3 8 -5 -3 -28 22 -51 54 -23 33
-37 60 -32 60 6 0 34 -24 64 -53z m-705 -85 c2 -7 -2 -10 -12 -6 -9 3 -16 11
-16 16 0 13 23 5 28 -10z m700 -44 c-5 -13 -76 -40 -92 -35 -12 4 62 46 82 47
8 0 12 -5 10 -12z m-723 -19 c8 -12 -31 -74 -95 -149 -68 -80 -110 -143 -155
-233 -44 -87 -73 -114 -61 -56 11 59 56 142 95 178 52 49 113 134 150 209 29
58 51 76 66 51z m-587 -96 c40 -50 41 -53 18 -51 -29 3 -113 119 -100 139 5 9
12 6 23 -12 9 -13 35 -47 59 -76z m1402 55 c0 -48 -16 -42 -26 10 -5 25 -3 32
10 32 12 0 16 -10 16 -42z m-30 -22 c20 -43 20 -47 5 -99 -8 -29 -22 -62 -30
-73 -12 -17 -13 -14 -3 26 5 25 7 78 3 118 -3 39 -4 72 -1 72 2 0 14 -20 26
-44z m160 4 c0 -13 -1 -13 -10 0 -5 8 -10 22 -10 30 0 13 1 13 10 0 5 -8 10
-22 10 -30z m-210 -40 c0 -174 -113 -318 -242 -308 l-42 3 43 28 c24 16 41 31
38 34 -3 2 -29 -11 -57 -30 -51 -34 -53 -35 -87 -20 -45 18 -55 10 -14 -12
l31 -16 -112 -94 c-129 -108 -168 -130 -255 -140 -62 -7 -213 11 -213 25 0 5
36 29 81 55 193 114 319 288 336 467 3 38 9 68 13 68 4 0 25 -7 45 -16 62 -26
197 -35 279 -19 40 7 87 20 106 28 19 9 38 16 43 16 4 1 7 -31 7 -69z m156 6
c-4 -20 -3 -26 3 -17 12 18 32 -20 61 -118 21 -72 21 -76 5 -140 -31 -125
-101 -224 -177 -250 -26 -9 -28 -8 -29 17 l-1 27 -7 -25 c-5 -19 -13 -25 -36
-25 -25 0 -30 4 -27 23 2 12 -2 22 -7 22 -6 0 -11 -8 -11 -18 0 -16 -8 -17
-68 -14 -92 5 -204 -26 -307 -85 -44 -26 -84 -46 -90 -46 -5 1 -36 7 -69 15
l-59 14 103 69 c57 38 117 84 134 101 17 18 49 51 70 73 35 36 45 41 85 41 68
0 164 38 228 90 67 53 117 124 157 219 30 70 53 86 42 27z m-865 -147 c-7 -22
-25 -48 -47 -64 -33 -25 -42 -27 -95 -22 -32 3 -59 2 -59 -3 0 -8 73 -20 122
-20 40 0 32 -18 -22 -54 -48 -32 -169 -71 -182 -58 -14 14 58 143 122 220 34
39 64 72 68 72 5 0 28 20 53 44 l44 45 3 -62 c2 -34 -1 -78 -7 -98z m153 64
c-9 -50 -61 -156 -97 -196 -26 -30 -28 -31 -21 -7 3 14 23 54 44 90 21 36 46
84 55 108 21 52 28 54 19 5z m-730 8 c3 -5 18 -12 33 -16 15 -3 40 -17 56 -31
16 -14 32 -22 35 -19 3 3 -3 11 -13 19 -16 11 -7 14 66 19 47 3 106 13 133 22
26 9 49 15 51 13 2 -2 -19 -37 -46 -78 -27 -41 -60 -109 -73 -150 l-24 -75
-43 3 c-23 1 -50 7 -60 13 -14 7 -149 266 -149 286 0 7 29 2 34 -6z m-3404
-272 c0 -6 -4 -7 -10 -4 -5 3 -10 11 -10 16 0 6 5 7 10 4 6 -3 10 -11 10 -16z
m3914 -22 c-16 -17 -34 -35 -40 -39 -7 -4 -31 -24 -55 -43 -85 -72 -149 -81
-149 -21 0 46 18 63 72 69 26 2 80 20 120 39 40 19 75 34 77 31 3 -2 -9 -18
-25 -36z m-310 -43 c16 -6 23 -54 8 -54 -5 0 -21 14 -37 30 -27 28 -27 30 -8
30 12 0 28 -3 37 -6z m16 -95 c0 -7 -12 -8 -32 -4 -40 9 -45 13 -54 49 l-7 29
47 -32 c25 -18 46 -37 46 -42z m981 -36 c12 -12 -47 -185 -75 -220 -1 -1 -29
9 -62 22 -41 17 -79 25 -124 25 -49 0 -71 5 -90 20 -14 11 -31 20 -37 20 -68
1 130 111 252 140 46 10 122 7 136 -7z m75 -17 c7 -17 -52 -213 -71 -239 -13
-18 -14 -17 -38 3 l-25 22 25 56 c14 31 31 77 40 102 8 25 16 51 18 58 6 17
44 15 51 -2z m-874 -16 c46 -11 99 -20 118 -21 l35 -1 -40 -10 c-51 -12 -139
-5 -190 16 -31 13 -36 19 -25 26 19 12 5 13 102 -10z m-164 -66 c-4 -3 -12 5
-18 18 -12 22 -12 22 6 6 10 -10 15 -20 12 -24z m-3471 -16 c-3 -8 -6 -5 -6 6
-1 11 2 17 5 13 3 -3 4 -12 1 -19z m3903 -4 c60 -18 63 -9 -22 -76 -34 -27
-34 -27 -83 -12 -28 8 -86 23 -130 32 -56 12 -80 22 -80 32 0 12 20 17 89 22
49 4 91 10 94 13 11 10 80 5 132 -11z m-395 -14 c16 -18 16 -20 2 -20 -9 0
-21 9 -27 20 -6 11 -7 20 -2 20 5 0 17 -9 27 -20z m565 -50 c0 -11 -122 -42
-151 -38 -22 3 -21 5 24 40 l48 36 39 -15 c22 -9 40 -19 40 -23z m-4074 -86
c2 -72 1 -95 -8 -86 -13 13 -24 152 -14 178 12 31 18 7 22 -92z m3634 39 l55
-6 -65 -19 c-36 -11 -73 -22 -82 -25 -20 -6 -34 18 -24 42 6 16 32 18 116 8z
m704 -13 c7 -7 6 -14 -1 -21 -9 -9 -26 -6 -67 11 -31 12 -56 25 -56 28 0 8
114 -8 124 -18z m-1755 -36 c-14 -13 -16 -13 -16 0 0 8 4 13 9 10 4 -3 8 0 8
7 0 7 3 9 7 5 4 -3 0 -13 -8 -22z m1637 10 c18 -14 18 -14 -6 -3 -31 14 -36
19 -24 19 6 0 19 -7 30 -16z m-17 -20 c35 -13 69 -28 74 -33 11 -11 -3 -39
-32 -65 -20 -18 -21 -18 -78 16 -32 19 -80 45 -108 58 -61 28 -58 26 -50 39
11 19 125 10 194 -15z m203 13 c15 -12 15 -15 -4 -45 -23 -37 -25 -38 -50 -15
-26 23 -22 34 7 23 14 -5 25 -6 25 -1 0 5 -7 11 -15 15 -21 8 -19 36 3 36 9 0
25 -6 34 -13z m-1852 -7 c0 -5 -4 -10 -10 -10 -5 0 -10 5 -10 10 0 6 5 10 10
10 6 0 10 -4 10 -10z m1224 -97 c-62 -64 -98 -81 -57 -25 21 28 99 92 113 92
4 0 -21 -30 -56 -67z m836 59 c0 -9 -119 -98 -144 -108 -18 -7 -56 21 -56 40
0 24 113 73 173 75 15 1 27 -3 27 -7z m-535 -62 c58 -28 105 -55 105 -60 0 -8
-58 -45 -127 -83 -23 -13 -33 -14 -33 -6 0 7 -8 5 -20 -6 -33 -30 -125 -32
-188 -5 -81 35 -81 39 -13 119 105 121 111 122 276 41z m-434 34 c-26 -19 -87
-35 -96 -26 -3 4 15 14 42 23 63 23 84 24 54 3z m62 -47 c-28 -29 -54 -63 -57
-75 -9 -27 -18 -28 -41 -2 -16 18 -17 22 -4 35 21 20 133 94 143 95 5 0 -14
-24 -41 -53z m636 29 c9 -11 4 -20 -26 -45 -41 -34 -48 -36 -58 -21 -8 14 41
80 59 80 8 0 19 -6 25 -14z m81 -61 c16 -19 7 -31 -41 -55 -46 -24 -50 -12
-11 36 30 38 35 40 52 19z m-186 -44 c12 -20 -114 -115 -130 -98 -6 5 104 107
116 107 5 0 11 -4 14 -9z m-4244 -55 c0 -8 -24 -13 -80 -15 -44 -1 -80 2 -80
7 0 11 116 26 130 17 6 -3 10 -1 10 5 0 6 5 8 10 5 6 -3 10 -12 10 -19z m3608
-22 c-4 -3 -12 5 -18 18 -12 22 -12 22 6 6 10 -10 15 -20 12 -24z m177 -53
c18 -11 18 -11 -5 -5 -14 3 -36 18 -50 32 l-25 25 30 -20 c17 -11 39 -25 50
-32z m724 -97 c118 -123 139 -152 104 -141 -10 3 -40 10 -68 17 -51 13 -58 16
-110 50 -40 26 -58 25 -22 -1 37 -28 34 -39 -8 -27 -19 6 -32 15 -29 19 2 4
-5 14 -16 22 -17 12 -18 16 -6 33 7 10 21 33 31 49 14 24 11 22 -18 -10 -19
-22 -38 -37 -42 -33 -4 4 13 31 39 59 61 67 52 76 -9 10 -43 -46 -85 -66 -85
-41 0 6 -7 10 -15 10 -8 0 -15 3 -15 8 1 8 131 102 141 102 4 0 61 -57 128
-126z m-4459 99 c0 -9 -17 -64 -37 -122 -34 -96 -38 -102 -46 -77 -5 15 -6 70
-2 122 l7 94 39 0 c30 0 39 -4 39 -17z m89 -17 c-2 -2 -15 -7 -28 -11 -17 -5
-22 -4 -19 6 3 8 10 14 16 14 5 0 14 4 18 8 5 5 10 3 12 -3 2 -6 2 -13 1 -14z
m-69 -26 c0 -5 -5 -10 -11 -10 -5 0 -7 5 -4 10 3 6 8 10 11 10 2 0 4 -4 4 -10z
m3851 -15 c-14 -7 -32 -10 -40 -7 -12 4 -11 7 3 12 10 3 27 7 39 7 21 2 21 1
-2 -12z m-3058 -15 c-3 -11 -7 -20 -9 -20 -2 0 -4 9 -4 20 0 11 4 20 9 20 5 0
7 -9 4 -20z m2914 -6 c-3 -3 -12 -4 -19 -1 -8 3 -5 6 6 6 11 1 17 -2 13 -5z
m-3637 -66 c0 -18 -2 -20 -9 -8 -6 8 -7 18 -5 22 9 14 14 9 14 -14z m4096 8
c23 -18 18 -20 -86 -34 -75 -9 -102 -4 -78 16 36 29 134 40 164 18z m-4167
-32 c-10 -23 -13 -25 -16 -11 -3 10 1 25 8 33 17 21 21 11 8 -22z m3928 22 c3
-3 -8 -6 -25 -6 -18 0 -32 4 -32 9 0 10 47 8 57 -3z m-3973 -153 c-11 -45 -22
-69 -27 -64 -16 16 -3 126 18 157 l20 29 3 -25 c2 -14 -4 -58 -14 -97z m52 63
c-8 -20 -18 -36 -21 -36 -3 0 2 16 10 36 8 20 15 39 15 42 0 3 3 3 6 0 3 -3
-2 -22 -10 -42z m881 2 c-3 -8 -6 -5 -6 6 -1 11 2 17 5 13 3 -3 4 -12 1 -19z
m198 -29 c3 -30 2 -37 -4 -24 -5 11 -7 23 -5 27 3 4 0 9 -5 13 -6 3 -8 12 -4
21 8 22 13 12 18 -37z m-19 -90 c6 -28 4 -32 -7 -21 -18 16 -48 17 -31 0 7 -7
12 -17 12 -22 0 -6 -4 -5 -9 3 -8 12 -14 12 -44 -2 -45 -22 -51 -21 -29 1 9
11 20 17 24 15 4 -2 5 10 3 27 -2 21 1 33 11 37 22 8 16 31 -13 48 -27 15 -27
15 -3 9 14 -4 28 -12 32 -18 4 -6 10 -7 14 -3 4 4 2 13 -4 19 -7 7 -12 19 -11
28 1 21 48 -80 55 -121z m3361 82 c11 -27 12 -32 1 -28 -7 3 -39 16 -70 29
-32 13 -58 27 -58 31 0 4 26 7 57 5 54 -3 57 -5 70 -37z m-4338 -4 c0 -12 -17
-58 -38 -102 -32 -66 -39 -76 -45 -58 -6 20 16 86 55 165 15 30 29 28 28 -5z
m3626 15 c-3 -3 -11 0 -18 7 -9 10 -8 11 6 5 10 -3 15 -9 12 -12z m385 8 c13
-8 12 -11 -3 -23 -21 -14 -156 -52 -163 -45 -8 8 110 78 131 78 11 0 27 -5 35
-10z m465 -49 c50 -33 82 -65 113 -110 23 -35 42 -67 42 -72 0 -5 -33 15 -72
44 -40 30 -88 63 -106 73 -31 17 -92 95 -92 116 0 17 44 -3 115 -51z m-3368
-28 c-3 -10 -5 -2 -5 17 0 19 2 27 5 18 2 -10 2 -26 0 -35z m56 35 c-6 -7 -18
-37 -28 -66 -9 -29 -19 -51 -22 -48 -8 7 39 126 50 126 6 0 6 -4 0 -12z m48
-48 c17 -14 17 -17 -8 -75 -13 -33 -32 -67 -41 -75 -14 -13 -15 -13 -4 1 6 9
9 18 6 22 -3 3 -1 14 5 25 6 10 13 34 15 53 5 33 5 33 -17 -11 -12 -25 -25
-46 -29 -48 -5 -2 -8 -11 -8 -19 0 -9 -3 -14 -6 -10 -3 3 9 44 27 91 19 47 36
80 38 73 2 -6 12 -19 22 -27z m-1173 -27 c8 -25 8 -34 -4 -44 -10 -8 -14 -36
-15 -98 -1 -112 -11 -181 -24 -161 -20 32 4 367 25 343 4 -4 12 -22 18 -40z
m4104 33 c45 -16 135 -81 149 -108 16 -29 29 -271 15 -280 -20 -14 -23 -9 -44
76 -20 78 -55 156 -71 156 -4 0 -12 -5 -17 -10 -8 -8 -27 2 -65 33 -47 38 -58
43 -83 36 -17 -5 -32 -7 -34 -5 -6 6 28 79 45 98 19 21 53 22 105 4z m-3274
-31 c0 -21 -3 -23 -14 -14 -11 9 -11 15 -3 25 15 19 17 18 17 -11z m162 11 c0
-3 -4 -8 -10 -11 -5 -3 -10 -1 -10 4 0 6 5 11 10 11 6 0 10 -2 10 -4z m2562
-18 c-9 -9 -42 -1 -42 12 0 4 12 5 26 2 15 -3 22 -8 16 -14z m376 2 c-12 -19
-28 -27 -28 -14 0 6 30 33 38 34 1 0 -3 -9 -10 -20z m381 -5 c39 -20 49 -62
22 -89 -19 -18 -21 -19 -21 -3 0 10 -9 35 -20 57 -29 57 -27 59 19 35z m-3073
-44 c15 -23 23 -45 18 -52 -5 -8 -3 -9 6 -4 10 6 12 4 7 -8 -4 -10 -2 -16 6
-14 7 1 11 -6 11 -15 -1 -10 2 -15 7 -13 4 3 13 -4 20 -16 9 -17 8 -24 -2 -31
-11 -8 -10 -9 3 -4 13 4 21 -7 36 -47 33 -86 40 -119 51 -229 1 -5 6 -8 11 -8
6 0 11 15 11 33 0 17 1 74 2 125 1 52 -1 96 -5 99 -12 7 -9 51 3 58 6 5 4 12
-8 21 -16 12 -16 13 -1 14 9 0 21 -6 25 -14 4 -8 15 -14 23 -14 45 3 62 -3 56
-18 -3 -8 -2 -12 4 -9 6 3 10 -1 10 -10 0 -9 4 -14 8 -11 4 2 9 -4 9 -15 1
-10 -2 -19 -8 -19 -5 0 -9 -8 -9 -17 0 -15 2 -16 10 -3 7 11 9 8 8 -15 -1 -16
-7 -33 -13 -37 -6 -5 -6 -8 3 -8 6 0 12 -7 12 -15 0 -8 -4 -15 -10 -15 -5 0
-10 -11 -10 -24 0 -15 -7 -26 -20 -29 -20 -5 -29 -37 -10 -37 6 0 10 7 10 15
0 9 6 12 15 9 11 -5 13 -10 5 -19 -6 -7 -7 -15 -3 -17 4 -3 2 -3 -6 -1 -8 2
-25 -6 -38 -18 -24 -24 -30 -39 -13 -39 6 0 10 7 10 15 0 8 4 15 9 15 5 0 7
-9 4 -20 -3 -11 -9 -20 -14 -20 -5 0 -9 -9 -9 -20 0 -11 -7 -20 -15 -20 -13 0
-14 4 -4 21 7 13 7 19 1 15 -6 -3 -18 4 -26 16 -19 26 -23 23 -31 -21 -3 -19
-9 -39 -13 -45 -3 -6 -5 -18 -4 -28 2 -9 -2 -19 -9 -23 -8 -5 -9 -1 -4 15 5
16 4 21 -6 18 -8 -3 -29 1 -46 9 -18 7 -33 11 -33 8 0 -3 -1 -8 -2 -12 -2 -3
7 -7 19 -8 27 -2 40 -12 28 -22 -4 -5 -10 -2 -12 5 -3 6 -9 12 -14 12 -6 0 -8
-4 -4 -9 3 -5 1 -12 -4 -15 -5 -3 -11 1 -15 9 -3 8 -12 15 -20 15 -10 0 -13 6
-9 16 4 10 -1 17 -15 21 -18 4 -20 9 -11 24 11 21 0 26 -18 8 -13 -13 -19 -4
-25 36 -3 17 -3 24 -1 18 10 -29 23 -10 23 31 0 26 5 46 13 49 9 4 8 8 -3 17
-12 9 -10 11 12 7 23 -3 26 -1 18 13 -6 12 -3 21 12 34 15 13 19 25 14 48 -5
24 -3 29 9 25 9 -4 12 -1 9 8 -3 7 2 16 13 18 10 3 0 4 -22 1 -37 -4 -38 -3
-12 7 24 9 39 31 20 28 -21 -3 -33 2 -33 16 0 7 -8 19 -17 25 -13 8 -14 13 -5
16 16 7 16 25 -1 18 -8 -3 -19 7 -27 23 -8 18 -14 23 -18 14 -2 -7 2 -18 9
-23 11 -7 9 -8 -5 -4 -14 5 -17 2 -12 -9 3 -9 2 -13 -4 -10 -6 3 -10 1 -10 -6
0 -7 -2 -10 -5 -7 -3 3 3 27 13 54 10 27 22 57 25 67 9 24 13 22 43 -22z
m-1304 -86 l-4 -110 -19 50 c-10 28 -19 58 -19 67 0 17 39 114 43 107 2 -2 1
-53 -1 -114z m854 106 c-4 -5 0 -12 6 -14 8 -3 6 -6 -4 -6 -18 -1 -24 10 -11
22 9 10 15 8 9 -2z m3676 -119 c11 -24 17 -54 14 -65 -3 -12 -29 -47 -57 -77
l-52 -55 -13 30 c-29 67 -7 197 34 203 12 2 22 10 22 19 0 26 31 -6 52 -55z
m-4602 -27 c-7 -25 -17 -45 -21 -45 -13 0 -11 61 3 101 11 31 12 32 21 11 7
-14 6 -36 -3 -67z m970 82 c0 -2 -10 -12 -22 -23 l-23 -19 19 23 c18 21 26 27
26 19z m2974 -13 c3 -8 2 -12 -4 -9 -6 3 -10 10 -10 16 0 14 7 11 14 -7z
m-3739 -111 c14 -51 26 -100 26 -110 0 -10 -4 -119 -9 -243 -7 -199 -9 -222
-21 -195 -28 64 -52 174 -58 270 -6 96 -5 99 12 85 18 -15 18 -14 0 13 -15 24
-17 40 -11 110 10 129 18 179 27 170 4 -4 19 -49 34 -100z m885 97 c0 -5 -2
-10 -4 -10 -3 0 -8 5 -11 10 -3 6 -1 10 4 10 6 0 11 -4 11 -10z m545 -20 c17
-19 17 -19 -8 -7 -14 6 -23 15 -21 19 7 11 9 10 29 -12z m1987 -22 c-5 -21 -6
-21 -12 -2 -8 21 -3 37 10 29 4 -3 6 -15 2 -27z m1074 -87 c-6 -51 -1 -84 20
-135 15 -38 -16 -5 -40 42 -18 35 -25 68 -27 130 l-4 83 29 -32 c26 -29 28
-36 22 -88z m-4653 17 c20 -55 41 -171 34 -191 -5 -15 -52 65 -71 121 -13 36
-13 51 -4 87 7 25 14 42 17 40 2 -3 13 -29 24 -57z m4424 -5 c-3 -10 -5 -2 -5
17 0 19 2 27 5 18 2 -10 2 -26 0 -35z m343 -97 c60 -93 70 -126 35 -126 -22 0
-90 65 -109 104 -23 49 -21 136 4 121 4 -2 35 -47 70 -99z m-171 11 c12 -53
74 -143 115 -170 39 -26 32 -37 -24 -37 -60 0 -135 34 -172 78 -33 39 -56 94
-41 99 6 2 31 29 54 60 48 61 46 62 68 -30z m-4666 59 c8 -19 -3 -57 -14 -50
-12 7 -12 64 0 64 5 0 11 -6 14 -14z m4497 -31 c0 -14 -4 -25 -10 -25 -11 0
-14 33 -3 43 11 11 13 8 13 -18z m-3080 -15 c0 -5 -2 -10 -4 -10 -3 0 -8 5
-11 10 -3 6 -1 10 4 10 6 0 11 -4 11 -10z m-1386 -36 c9 -24 7 -28 -9 -14 -17
14 -20 30 -6 30 5 0 12 -7 15 -16z m-45 -71 c-2 -75 -2 -76 -9 -28 -7 45 -3
105 6 105 2 0 3 -35 3 -77z m150 9 c-1 -47 -3 -52 -9 -27 -12 45 -12 97 0 90
6 -3 9 -32 9 -63z m4321 29 c0 -5 -7 -14 -16 -22 -13 -10 -17 -10 -24 1 -5 8
-6 18 -4 22 7 11 44 10 44 -1z m-4492 -198 c7 -65 22 -158 32 -207 24 -107 24
-120 4 -83 -28 51 -55 181 -61 295 -8 150 9 146 25 -5z m4952 107 c0 -5 -4
-10 -10 -10 -5 0 -10 5 -10 10 0 6 5 10 10 10 6 0 10 -4 10 -10z m-3229 -13
c-1 -12 -15 -9 -19 4 -3 6 1 10 8 8 6 -3 11 -8 11 -12z m-1367 -189 c-25 -132
-35 -178 -40 -178 -6 0 0 38 24 163 9 48 19 87 23 87 4 0 0 -33 -7 -72z m88
18 c-2 -51 -63 -241 -82 -260 -16 -16 -30 12 -23 49 5 30 35 154 54 228 8 31
14 38 32 35 20 -3 22 -8 19 -52z m52 -82 c-18 -72 -26 -170 -13 -157 4 4 19
49 34 98 33 109 33 109 51 94 14 -12 44 -72 44 -89 0 -4 -18 -15 -40 -25 -38
-17 -58 -44 -22 -30 9 3 29 9 43 12 24 4 27 1 32 -34 4 -21 7 -51 7 -67 0 -40
-79 -201 -145 -295 -53 -75 -135 -161 -154 -161 -14 0 -31 118 -31 219 0 88 1
94 36 148 33 52 36 54 53 39 22 -20 85 -21 101 -1 11 13 8 14 -19 9 -20 -4
-31 -2 -31 4 0 6 -7 9 -15 6 -8 -4 -22 -1 -29 6 -12 10 -10 21 15 78 32 71 69
193 69 227 0 12 6 27 13 34 20 20 21 -36 1 -115z m323 13 c-1 -5 -5 -7 -8 -5
-3 2 -14 -3 -23 -11 -14 -12 -19 -12 -29 -1 -9 10 -9 11 1 6 7 -4 14 -1 17 6
6 15 47 19 42 5z m28 -16 c-3 -11 1 -24 11 -32 16 -13 17 -11 12 14 -3 15 -3
25 0 22 3 -2 11 0 19 6 10 9 13 8 13 -5 0 -10 -4 -15 -10 -11 -5 3 -3 -7 5
-21 8 -15 11 -32 8 -37 -3 -6 -1 -7 5 -3 18 11 26 -16 9 -29 -9 -7 -14 -15
-11 -18 4 -3 14 2 23 11 9 10 15 16 14 13 -2 -2 2 -10 8 -18 9 -10 7 -13 -7
-14 -18 0 -18 -1 1 -8 11 -5 27 -6 35 -3 9 3 7 -2 -5 -12 -20 -17 -20 -17 5
-10 20 5 23 4 13 -6 -9 -10 -8 -16 3 -27 18 -19 18 -34 -1 -27 -10 4 -15 0
-15 -12 0 -11 -5 -26 -10 -34 -8 -13 -11 -13 -22 -1 -8 9 -9 11 -1 7 6 -3 14
-2 18 4 4 6 -4 9 -19 8 -15 -1 -26 -5 -26 -9 0 -11 37 -39 43 -32 4 3 8 0 9
-8 0 -8 2 -18 3 -24 2 -5 3 -17 4 -25 1 -12 3 -13 10 -1 5 7 14 11 20 7 7 -5
8 -1 4 11 -6 15 -5 16 9 3 9 -8 13 -19 10 -24 -3 -5 3 -6 14 -3 20 8 -5 -16
-97 -92 l-54 -44 45 46 c24 26 40 47 34 47 -23 0 -234 -200 -234 -222 0 -5 6
-8 13 -9 9 0 9 -2 -1 -6 -6 -2 -10 -9 -6 -14 3 -5 0 -9 -6 -9 -6 0 -9 -4 -6
-8 2 -4 1 -14 -5 -22 -7 -13 -9 -12 -9 3 0 9 -7 17 -15 17 -8 0 -15 4 -15 10
0 5 7 7 15 4 8 -4 15 -1 15 5 0 6 -5 11 -10 11 -30 0 118 165 156 174 13 4 24
11 24 17 0 15 -39 1 -79 -29 -18 -15 -53 -50 -76 -79 -36 -43 -44 -49 -43 -31
1 13 22 45 47 71 37 39 43 49 31 57 -15 9 -44 -6 -35 -20 2 -4 -7 -18 -20 -30
-23 -21 -25 -22 -25 -5 0 10 12 31 26 46 26 27 26 28 5 26 -11 -1 -21 -7 -21
-14 0 -7 -3 -13 -7 -13 -5 0 -8 24 -9 53 -1 83 -14 238 -20 248 -3 5 -1 9 5 9
5 0 12 -6 15 -12 2 -7 4 -3 2 9 -3 26 -16 43 -17 22 -1 -8 -5 2 -9 21 -9 35
-1 59 27 92 12 13 18 14 28 5 7 -7 11 -15 8 -19 -2 -4 4 -5 13 -1 12 4 15 3
10 -5 -11 -17 -2 -15 23 7 31 27 51 17 51 -26 0 -19 4 -32 8 -29 12 7 13 64 1
71 -5 4 -3 12 4 20 16 19 19 18 12 -4z m82 -41 c1 -11 -2 -18 -8 -15 -11 7
-12 35 -1 35 4 0 8 -9 9 -20z m-587 -179 c0 -6 -4 -13 -10 -16 -5 -3 -10 1
-10 9 0 9 5 16 10 16 6 0 10 -4 10 -9z m260 -161 c-23 -34 -43 -74 -45 -88 -2
-23 -44 -66 -54 -56 -2 2 11 27 29 56 19 29 50 85 69 123 26 52 36 65 38 49 3
-12 -13 -47 -37 -84z m460 -10 c-14 -10 -27 -17 -29 -14 -6 5 31 33 44 33 6 1
-1 -8 -15 -19z m53 -12 c-9 -10 -20 -18 -25 -18 -5 0 -4 8 1 18 6 10 17 19 26
19 13 0 13 -2 -2 -19z m-833 -45 c0 -32 3 -68 6 -80 10 -35 -7 -26 -48 25
l-38 46 32 33 c18 18 36 33 40 33 4 0 8 -26 8 -57z m879 23 c-15 -13 -49 -25
-49 -17 0 5 8 12 18 14 24 6 36 8 31 3z m-169 -10 c0 -2 -8 -10 -17 -17 -16
-13 -17 -12 -4 4 13 16 21 21 21 13z m37 -21 c-15 -14 -33 -25 -40 -25 -7 0 1
12 16 25 15 14 33 25 40 25 7 0 -1 -12 -16 -25z m-766 -93 c36 -39 40 -48 37
-89 -2 -33 -9 -49 -24 -60 -19 -12 -25 -11 -54 14 -31 25 -90 132 -90 161 0 7
12 24 28 37 l27 24 18 -22 c10 -12 36 -41 58 -65z m818 84 c-2 -2 -15 -9 -29
-16 -23 -12 -24 -12 -11 3 7 10 20 17 29 17 8 0 13 -2 11 -4z m16 -26 c3 -5
-1 -10 -10 -10 -9 0 -13 5 -10 10 3 6 8 10 10 10 2 0 7 -4 10 -10z m-175 -3
c0 -2 -12 -14 -27 -28 l-28 -24 24 28 c23 25 31 32 31 24z m75 -17 c-3 -5 -16
-15 -28 -21 -19 -9 -19 -8 3 10 28 23 34 26 25 11z m-200 -74 c-16 -24 -6 -44
14 -31 5 3 12 2 15 -3 8 -13 -32 -12 -43 2 -7 9 -6 19 5 34 21 30 28 28 9 -2z
m75 3 c-7 -11 -14 -18 -17 -15 -3 3 0 12 7 21 18 21 23 19 10 -6z m647 -706
c-3 -10 -5 -4 -5 12 0 17 2 24 5 18 2 -7 2 -21 0 -30z m23 -49 c0 -8 -5 -12
-10 -9 -6 4 -8 11 -5 16 9 14 15 11 15 -7z m4143 -128 c26 -18 61 -39 78 -46
18 -8 28 -18 25 -26 -3 -8 0 -11 8 -8 8 3 22 -10 35 -31 26 -44 26 -52 4 -59
-15 -4 -14 -5 2 -4 32 2 75 -20 75 -37 0 -9 -4 -13 -10 -10 -5 3 -10 2 -10 -4
0 -5 4 -11 9 -13 5 -1 10 -30 12 -63 4 -59 4 -60 -23 -63 -16 -2 -28 -8 -28
-14 0 -5 6 -8 14 -5 8 3 17 -1 20 -9 8 -22 28 -17 21 6 -3 11 -2 20 4 20 14 0
41 -59 30 -66 -5 -3 -9 -1 -9 4 0 5 -6 9 -12 9 -7 0 -21 4 -31 8 -13 5 -16 3
-11 -8 3 -9 19 -19 35 -22 34 -8 39 -33 7 -31 -16 1 -31 15 -50 48 -16 26 -28
54 -28 63 0 8 -5 15 -10 15 -7 0 -7 6 0 20 7 14 7 20 0 20 -5 0 -10 -6 -10
-12 0 -7 -11 4 -25 24 -30 44 -30 45 -7 51 14 4 14 5 -3 6 -20 1 -61 58 -50
69 3 4 15 1 25 -6 24 -14 30 -15 30 -3 0 5 -10 13 -22 17 -13 4 -26 12 -30 18
-5 7 -8 6 -8 -4 0 -8 -11 2 -25 22 -29 42 -29 45 -12 51 6 2 4 3 -6 1 -12 -1
-24 10 -37 36 -11 21 -24 41 -30 45 -12 7 -14 25 -2 25 4 0 28 -15 55 -34z
m-3919 -58 c8 -13 7 -21 -2 -30 -11 -11 -16 -9 -28 6 -8 11 -14 26 -14 34 0
18 30 11 44 -10z m161 -4 c30 -19 32 -45 6 -61 -15 -9 -21 -9 -29 0 -13 17
-23 63 -15 71 9 9 11 8 38 -10z m65 6 c0 -5 -2 -10 -4 -10 -3 0 -8 5 -11 10
-3 6 -1 10 4 10 6 0 11 -4 11 -10z m-185 -80 c-3 -5 -11 -10 -16 -10 -6 0 -7
5 -4 10 3 6 11 10 16 10 6 0 7 -4 4 -10z m4268 -91 c34 -28 49 -59 28 -59 -14
0 -50 34 -53 50 -2 8 -10 20 -18 27 -8 7 -10 13 -5 13 6 0 27 -14 48 -31z m70
-106 c-7 -2 -19 -2 -25 0 -7 3 -2 5 12 5 14 0 19 -2 13 -5z m-139 -128 c11 -8
41 -18 68 -21 26 -4 48 -10 48 -14 0 -13 -104 13 -129 32 -13 10 -20 18 -15
18 5 0 18 -7 28 -15z m-2 -49 c5 -8 11 -7 20 2 16 16 28 15 28 -3 0 -9 7 -18
16 -22 9 -3 13 -12 9 -21 -3 -8 0 -19 7 -24 10 -6 10 -8 1 -8 -13 0 -35 34
-27 42 3 3 -1 8 -9 11 -10 4 -13 -1 -9 -20 4 -19 1 -24 -9 -21 -8 3 -14 13
-14 23 0 10 -10 21 -23 26 -18 7 -22 5 -23 -14 0 -12 -3 -16 -6 -9 -2 6 -11
12 -18 12 -13 0 -35 29 -35 45 0 11 84 -6 92 -19z m181 1 c-3 -5 -11 -6 -19
-3 -7 3 -24 -1 -38 -8 -18 -9 -22 -16 -14 -27 7 -11 11 -11 15 -1 2 6 9 12 14
12 6 0 7 -5 3 -12 -5 -8 0 -9 14 -6 31 8 35 -5 6 -19 -20 -9 -24 -8 -24 4 0 8
-4 12 -10 8 -5 -3 -6 -13 -3 -22 4 -11 3 -14 -5 -9 -7 4 -12 14 -12 22 0 8 -4
14 -10 14 -5 0 -10 12 -10 26 0 20 4 24 19 19 11 -3 22 -2 25 4 3 5 17 8 30 7
13 0 22 -5 19 -9z m-200 -61 c30 -7 35 -21 11 -30 -16 -6 -53 28 -54 49 0 6 3
5 8 -1 4 -6 19 -14 35 -18z m202 -26 c-3 -5 -10 -10 -16 -10 -5 0 -9 5 -9 10
0 6 7 10 16 10 8 0 12 -4 9 -10z m-115 -10 c0 -5 -4 -10 -10 -10 -5 0 -10 5
-10 10 0 6 5 10 10 10 6 0 10 -4 10 -10z m30 0 c0 -5 -4 -10 -10 -10 -5 0 -10
5 -10 10 0 6 5 10 10 10 6 0 10 -4 10 -10z m55 -23 c16 -4 14 -5 -7 -6 -27 -1
-43 11 -31 23 4 3 9 2 12 -3 3 -5 15 -11 26 -14z m-68 -22 c0 -8 -4 -12 -9 -9
-5 3 -6 10 -3 15 9 13 12 11 12 -6z m53 -9 c0 -3 -4 -8 -10 -11 -5 -3 -10 -1
-10 4 0 6 5 11 10 11 6 0 10 -2 10 -4z m35 -24 c-3 -3 -11 0 -18 7 -9 10 -8
11 6 5 10 -3 15 -9 12 -12z m-78 2 c-3 -3 -12 -4 -19 -1 -8 3 -5 6 6 6 11 1
17 -2 13 -5z m-17 -69 c0 -8 -2 -15 -4 -15 -2 0 -6 7 -10 15 -3 8 -1 15 4 15
6 0 10 -7 10 -15z m-4800 -928 c0 -17 -44 -59 -53 -50 -11 11 -8 22 13 43 23
23 40 26 40 7z"/>
<path d="M6734 6588 l-19 -23 23 19 c21 18 27 26 19 26 -2 0 -12 -10 -23 -22z"/>
<path d="M6653 6537 c-23 -12 -42 -25 -43 -30 0 -9 45 14 75 37 27 21 18 19
-32 -7z"/>
<path d="M5860 4541 c-25 -22 -42 -42 -38 -46 10 -10 30 5 67 48 43 48 28 47
-29 -2z"/>
<path d="M2860 4086 c0 -2 8 -10 18 -17 15 -13 16 -12 3 4 -13 16 -21 21 -21
13z"/>
<path d="M3240 3890 c0 -5 5 -10 11 -10 5 0 7 5 4 10 -3 6 -8 10 -11 10 -2 0
-4 -4 -4 -10z"/>
<path d="M3425 3820 c3 -5 8 -10 11 -10 2 0 4 5 4 10 0 6 -5 10 -11 10 -5 0
-7 -4 -4 -10z"/>
<path d="M3219 3613 c-13 -16 -12 -17 4 -4 16 13 21 21 13 21 -2 0 -10 -8 -17
-17z"/>
<path d="M3210 3560 c0 -5 5 -10 11 -10 5 0 7 5 4 10 -3 6 -8 10 -11 10 -2 0
-4 -4 -4 -10z"/>
<path d="M3240 3501 c13 -24 29 -36 26 -19 -3 19 -16 38 -27 38 -6 0 -6 -7 1
-19z"/>
<path d="M3305 3479 c-4 -6 -5 -12 -2 -15 2 -3 7 2 10 11 7 17 1 20 -8 4z"/>
<path d="M2572 3264 c-8 -9 -10 -23 -6 -37 5 -12 7 -28 6 -34 -2 -8 3 -10 13
-7 14 6 14 9 1 29 -10 16 -12 25 -5 27 6 2 10 11 8 20 -3 14 -6 14 -17 2z"/>
<path d="M2610 3196 c0 -2 6 -9 14 -15 10 -9 15 -8 19 2 3 8 -3 13 -14 14 -10
1 -19 0 -19 -1z"/>
<path d="M2643 3154 c-16 -17 -17 -34 -1 -34 6 0 8 3 5 7 -4 3 -2 12 5 20 15
18 6 25 -9 7z"/>
<path d="M2661 3146 c-9 -11 -7 -15 8 -19 14 -3 17 0 14 14 -6 23 -7 23 -22 5z"/>
<path d="M2731 3116 c12 -14 28 -22 36 -19 10 4 5 11 -17 24 -40 25 -44 24
-19 -5z"/>
<path d="M2470 3105 c0 -8 4 -15 10 -15 5 0 7 7 4 15 -4 8 -8 15 -10 15 -2 0
-4 -7 -4 -15z"/>
<path d="M2660 3110 c0 -5 5 -10 11 -10 5 0 7 5 4 10 -3 6 -8 10 -11 10 -2 0
-4 -4 -4 -10z"/>
<path d="M2605 3040 c-3 -6 1 -7 9 -4 18 7 21 14 7 14 -6 0 -13 -4 -16 -10z"/>
<path d="M2480 2986 c0 -2 9 -6 20 -9 11 -3 20 -1 20 4 0 5 -9 9 -20 9 -11 0
-20 -2 -20 -4z"/>
<path d="M2518 2943 c7 -3 16 -2 19 1 4 3 -2 6 -13 5 -11 0 -14 -3 -6 -6z"/>
<path d="M2510 2916 c0 -2 8 -10 18 -17 15 -13 16 -12 3 4 -13 16 -21 21 -21
13z"/>
<path d="M2490 2889 c0 -5 5 -7 10 -4 6 3 10 8 10 11 0 2 -4 4 -10 4 -5 0 -10
-5 -10 -11z"/>
<path d="M7570 1730 c-14 -4 -20 -8 -13 -9 6 -1 18 -3 26 -6 8 -4 14 0 14 10
0 8 -1 15 -1 14 -1 -1 -12 -5 -26 -9z"/>
<path d="M7640 1560 c0 -5 5 -10 11 -10 5 0 7 5 4 10 -3 6 -8 10 -11 10 -2 0
-4 -4 -4 -10z"/>
<path d="M7647 1510 c-3 -11 -3 -20 -1 -20 2 0 13 9 24 20 19 19 19 20 1 20
-10 0 -21 -9 -24 -20z"/>
<path d="M7728 1323 c7 -3 16 -2 19 1 4 3 -2 6 -13 5 -11 0 -14 -3 -6 -6z"/>
<path d="M6829 6598 c-7 -12 -19 -33 -27 -45 -8 -13 -12 -23 -8 -23 9 0 58 81
53 87 -3 3 -11 -6 -18 -19z"/>
<path d="M3735 6453 c-16 -3 -34 -9 -40 -15 -7 -6 38 -9 137 -6 100 2 151 7
160 16 10 9 -12 12 -107 11 -66 -1 -133 -4 -150 -6z"/>
<path d="M6810 6433 c0 -5 9 -18 20 -28 11 -10 20 -14 20 -8 0 5 -9 18 -20 28
-11 10 -20 14 -20 8z"/>
<path d="M4240 6390 c0 -5 5 -10 11 -10 5 0 7 5 4 10 -3 6 -8 10 -11 10 -2 0
-4 -4 -4 -10z"/>
<path d="M1688 5872 c-53 -56 -103 -130 -95 -138 3 -3 13 8 22 26 9 17 41 60
71 95 64 77 65 85 2 17z"/>
<path d="M1572 5695 c-17 -37 -14 -45 4 -12 9 16 14 31 11 33 -2 2 -9 -7 -15
-21z"/>
<path d="M1541 5604 c0 -11 3 -14 6 -6 3 7 2 16 -1 19 -3 4 -6 -2 -5 -13z"/>
<path d="M1531 5554 c0 -11 3 -14 6 -6 3 7 2 16 -1 19 -3 4 -6 -2 -5 -13z"/>
<path d="M7018 4953 c6 -2 18 -2 25 0 6 3 1 5 -13 5 -14 0 -19 -2 -12 -5z"/>
<path d="M673 3290 c-71 -16 -123 -68 -123 -122 0 -37 -1 -38 -34 -38 -41 0
-54 -15 -64 -71 -6 -37 -13 -46 -46 -63 -29 -15 -47 -36 -67 -76 -31 -63 -42
-127 -20 -122 20 4 43 -19 36 -37 -3 -8 -3 -12 1 -9 4 4 16 1 27 -7 17 -12 25
-12 55 0 19 8 39 12 45 8 5 -3 7 -1 4 4 -4 6 0 16 8 23 13 10 15 9 15 -10 0
-16 4 -20 16 -16 9 3 17 6 20 6 2 0 1 21 -2 48 -14 111 -48 156 -42 55 l3 -56
-49 -25 c-43 -21 -50 -22 -63 -9 -8 8 -18 30 -22 48 -5 22 -13 34 -23 33 -10
-1 -14 5 -10 18 2 10 7 16 10 14 2 -3 17 3 32 14 15 11 40 25 56 31 22 9 25
13 12 16 -9 2 -31 -3 -48 -12 -41 -21 -50 -12 -20 20 20 21 29 23 69 18 60 -8
78 -25 97 -92 8 -31 24 -83 35 -116 21 -64 26 -83 34 -130 5 -27 4 -28 -5 -6
-16 37 -51 82 -60 76 -4 -2 -4 -26 1 -51 11 -56 7 -63 -11 -29 -18 34 -27 31
-34 -11 l-7 -36 -24 26 c-13 14 -29 26 -35 26 -6 0 -21 5 -32 11 -17 9 -18 13
-7 20 10 6 11 9 2 9 -7 0 -13 8 -13 18 0 15 -2 15 -10 2 -8 -11 -9 -6 -5 18 5
31 -8 46 -18 20 -2 -7 -8 4 -12 25 -4 20 -12 37 -17 37 -6 0 -7 -8 -4 -17 4
-10 -5 -5 -18 11 l-26 29 -29 -31 c-48 -52 -67 -173 -36 -232 l16 -30 -31 0
c-44 0 -67 -15 -90 -59 -34 -67 -43 -162 -25 -252 11 -52 13 -84 7 -96 -5 -10
-19 -53 -31 -96 -20 -72 -20 -87 -10 -230 5 -83 19 -191 30 -238 26 -116 26
-220 0 -243 -34 -31 -43 -99 -41 -311 1 -110 3 -213 5 -230 2 -16 7 -59 10
-95 11 -107 42 -233 74 -305 20 -44 28 -72 22 -78 -7 -7 10 -32 46 -71 62 -68
78 -98 88 -169 l7 -47 682 0 682 0 -1 144 c0 127 2 146 19 165 13 15 16 24 8
33 -7 9 -6 24 5 51 16 40 29 47 36 19 3 -9 3 3 0 28 -3 30 3 63 16 100 11 30
20 49 21 43 0 -7 4 -13 9 -13 4 0 11 26 14 58 5 54 43 154 127 337 33 74 55
166 52 226 -1 21 -32 113 -69 205 -60 153 -67 176 -68 244 0 41 2 93 6 115 6
35 4 44 -22 73 -16 18 -30 40 -31 50 -3 33 -4 78 -6 190 -2 93 -5 112 -17 112
-9 0 -18 7 -21 15 -16 42 -133 -11 -195 -88 -21 -27 -39 -57 -39 -65 0 -28
-18 1 -30 48 -43 175 -51 219 -46 257 3 23 1 45 -4 48 -6 3 -10 14 -10 24 0 9
-25 68 -55 130 -31 62 -65 143 -77 179 -11 37 -50 143 -87 236 l-66 169 -50
23 c-27 13 -58 24 -68 24 -10 0 -27 5 -39 11 -26 14 -60 -16 -78 -71 -7 -22
-16 -40 -20 -40 -3 0 -16 24 -28 53 -14 34 -43 73 -80 108 -52 51 -60 55 -89
49z m75 -57 c24 -27 50 -59 57 -73 19 -39 27 -70 17 -70 -4 0 -13 17 -18 37
-14 57 -34 54 -34 -5 l0 -50 -50 -17 c-61 -20 -77 -16 -94 27 -31 76 -31 75
24 110 62 38 50 51 -13 14 -49 -29 -67 -32 -67 -13 0 28 78 85 119 86 8 1 35
-20 59 -46z m-148 -132 c6 -13 13 -37 13 -55 2 -28 5 -31 39 -34 26 -2 59 7
111 31 l74 34 12 -31 c7 -17 26 -84 42 -148 16 -65 32 -125 36 -135 4 -10 2
-14 -4 -10 -6 4 -2 -21 8 -54 11 -33 17 -65 14 -69 -3 -5 -1 -12 5 -15 8 -5 7
-11 -1 -21 -7 -9 -8 -14 -1 -14 6 0 14 9 17 21 11 35 17 13 7 -25 -6 -22 -7
-36 -1 -38 6 -2 12 -18 14 -37 4 -27 2 -31 -10 -21 -22 18 -60 9 -60 -15 0
-13 -7 -19 -18 -19 -9 1 -17 -2 -17 -7 0 -5 -5 -9 -12 -9 -9 0 -9 3 0 12 7 7
12 18 12 26 0 10 -8 7 -30 -8 -16 -12 -30 -28 -30 -35 0 -9 -6 -12 -17 -8 -11
4 -12 8 -5 11 7 2 12 8 12 14 0 6 -7 8 -15 4 -8 -3 -14 0 -12 7 1 7 -4 11 -11
9 -8 -1 -11 2 -7 8 4 6 2 17 -4 24 -9 10 -8 15 5 20 13 5 14 9 4 21 -7 8 -10
24 -7 35 3 11 1 23 -4 26 -5 3 -9 -8 -9 -25 0 -16 -5 -33 -11 -36 -7 -5 -8 6
-4 33 4 28 1 43 -10 52 -8 7 -12 17 -9 22 3 5 -2 18 -12 29 -16 18 -16 19 2
19 11 0 26 -6 34 -12 8 -7 6 -3 -4 9 -10 13 -24 20 -30 16 -6 -3 -8 -3 -4 2 4
4 2 17 -4 29 -9 19 -8 18 13 -3 14 -15 24 -20 27 -13 2 7 8 10 13 6 5 -3 9 23
9 60 0 52 -3 66 -15 66 -8 0 -21 14 -30 30 -18 34 -35 39 -35 11 0 -11 -4 -23
-10 -26 -5 -3 -10 1 -10 9 0 15 -12 21 -33 17 -5 -1 -6 3 -2 9 3 5 14 10 23
11 12 0 9 4 -8 11 -14 6 -27 11 -30 10 -3 0 -4 18 -3 41 2 33 1 36 -5 17 -6
-19 -11 -6 -20 60 -14 98 -15 140 -3 99 5 -14 14 -36 21 -48z m329 40 c-20
-27 -21 -33 -9 -81 7 -28 9 -54 6 -57 -3 -4 -6 1 -6 10 0 10 -4 17 -10 17 -29
0 -18 84 17 122 25 28 26 21 2 -11z m122 8 c16 -8 29 -50 29 -95 0 -24 -29
-45 -82 -58 -24 -5 -27 -2 -42 41 -21 62 -20 82 6 110 21 23 47 23 89 2z
m-521 -48 c0 -3 -14 -14 -30 -23 -25 -14 -29 -22 -24 -43 4 -17 2 -25 -6 -25
-19 0 -5 81 15 96 16 12 45 9 45 -5z m624 -141 c16 -39 41 -89 56 -113 16 -23
36 -70 44 -104 9 -34 25 -83 37 -109 11 -26 17 -54 14 -63 -3 -8 -3 -12 1 -8
4 4 16 -5 26 -20 22 -34 22 -40 3 -40 -8 0 -12 5 -9 11 3 6 -2 2 -10 -8 -9
-11 -16 -30 -16 -44 0 -13 -4 -20 -10 -17 -5 3 -7 0 -4 -8 3 -8 1 -18 -5 -22
-6 -3 -11 -1 -11 4 0 6 -15 11 -34 11 -28 0 -37 5 -47 29 -7 16 -16 28 -20 25
-12 -7 -39 7 -39 21 0 8 8 11 21 8 16 -4 20 -2 17 8 -3 8 -15 14 -27 13 -13 0
-21 6 -21 15 0 14 -2 14 -11 1 -9 -13 -10 -12 -5 2 3 10 1 20 -4 23 -7 4 -6
13 0 25 11 21 -11 47 -31 35 -8 -5 -9 -1 -4 14 3 11 2 21 -3 21 -6 0 -13 7
-16 16 -3 8 -2 12 4 9 5 -3 18 -1 29 4 15 9 22 6 34 -12 14 -19 16 -19 16 -4
1 10 9 17 20 17 11 0 23 5 26 10 3 6 -1 10 -11 10 -13 0 -14 3 -4 15 6 8 17
13 23 12 6 -1 15 10 20 25 11 28 -8 93 -37 134 -14 18 -15 18 -25 -8 -13 -35
-70 -66 -82 -46 -7 11 -11 10 -19 -2 -6 -8 -8 -23 -6 -32 2 -10 0 -18 -5 -18
-5 0 -9 6 -9 13 0 8 -4 7 -10 -3 -5 -8 -10 -10 -10 -4 0 5 5 15 12 22 9 9 7
12 -12 12 -20 0 -22 2 -10 10 13 8 12 10 -4 10 -12 0 -16 5 -12 15 3 8 2 15
-3 15 -5 0 -11 8 -14 18 -4 9 -14 27 -23 39 -16 22 -16 22 23 18 40 -4 123 26
144 51 6 8 14 14 18 14 3 0 19 -32 35 -70z m-417 -177 c-3 -10 -5 -2 -5 17 0
19 2 27 5 18 2 -10 2 -26 0 -35z m-439 -58 c0 -16 -2 -15 -8 5 -11 34 -11 60
0 35 5 -11 8 -29 8 -40z m-47 5 c-10 -22 -21 -43 -24 -47 -13 -12 -7 28 8 57
23 45 37 36 16 -10z m714 -76 c4 -25 3 -24 -8 6 -8 19 -17 46 -20 60 -5 19 -3
17 8 -6 7 -17 16 -44 20 -60z m122 -39 c0 -8 -4 -12 -9 -9 -5 3 -6 10 -3 15 9
13 12 11 12 -6z m-520 -47 c-3 -8 -6 -5 -6 6 -1 11 2 17 5 13 3 -3 4 -12 1
-19z m420 -10 c-3 -8 -6 -5 -6 6 -1 11 2 17 5 13 3 -3 4 -12 1 -19z m-342 -49
c-5 -14 -3 -19 4 -15 6 4 13 -5 17 -21 3 -15 7 -32 9 -38 1 -5 -2 -18 -6 -27
-5 -9 -6 -24 -2 -34 6 -16 7 -16 13 2 6 15 8 13 12 -14 2 -17 1 -32 -4 -32 -4
0 -8 -5 -8 -11 0 -5 4 -8 8 -5 9 5 35 -65 27 -72 -2 -3 -10 7 -16 22 -9 19
-16 23 -24 16 -9 -7 -16 -6 -25 5 -14 17 -35 21 -25 5 7 -11 0 -12 -32 -4 -13
4 -21 10 -18 14 3 5 14 6 24 3 26 -7 46 30 31 55 -9 14 -10 13 -4 -7 5 -21 4
-23 -12 -16 -11 4 -27 8 -36 9 -10 0 -20 6 -22 12 -3 8 3 10 16 6 16 -4 19 -2
13 8 -6 10 -4 12 8 7 10 -3 17 -2 17 3 0 6 -7 10 -15 10 -8 0 -15 5 -15 11 0
5 5 7 11 3 8 -4 8 0 0 15 -9 16 -16 19 -29 12 -10 -5 -27 -5 -39 0 -27 10 -31
23 -5 17 21 -6 42 14 42 39 0 15 2 16 10 3 6 -10 10 -11 10 -3 0 9 7 10 26 3
14 -6 23 -6 20 -1 -8 12 4 41 16 41 5 0 6 -10 3 -21z m-394 -49 c9 -14 20 -41
23 -60 l5 -35 -11 33 c-14 41 -44 45 -33 5 14 -52 11 -66 -19 -82 -22 -12 -30
-13 -33 -3 -3 6 -9 10 -14 6 -5 -3 -9 -1 -9 4 0 6 7 12 15 16 8 3 15 1 15 -4
0 -6 4 -10 9 -10 5 0 8 8 6 18 -1 9 -8 16 -15 14 -21 -5 -46 8 -32 17 9 5 8
13 -4 30 -13 18 -18 20 -26 10 -6 -10 -7 -6 -3 11 8 29 32 50 54 50 10 -1 5
-7 -11 -16 -53 -28 -28 -29 42 -2 24 10 24 11 5 19 -18 8 -18 9 -1 6 10 -1 27
-13 37 -27z m1118 0 c11 -22 10 -23 -2 -7 -8 9 -20 17 -28 17 -11 0 -11 2 1
10 8 5 15 8 16 7 1 -1 7 -13 13 -27z m-43 -52 c4 -6 3 -8 -3 -5 -6 4 -16 1
-22 -7 -9 -11 -9 -15 1 -19 7 -3 0 -6 -17 -6 -16 0 -39 6 -49 14 -11 8 -15 15
-9 15 6 0 19 3 29 7 12 4 15 3 10 -5 -5 -8 -2 -10 8 -6 9 3 16 10 16 15 0 13
28 11 36 -3z m-763 -25 c-7 -2 -21 -2 -30 0 -10 3 -4 5 12 5 17 0 24 -2 18 -5z
m-456 -55 c-3 -7 -5 -2 -5 12 0 14 2 19 5 13 2 -7 2 -19 0 -25z m190 -30 c-3
-8 -6 -5 -6 6 -1 11 2 17 5 13 3 -3 4 -12 1 -19z m-62 -8 c-16 -11 -37 -20
-45 -20 -8 0 1 8 20 19 47 25 62 26 25 1z m79 -44 l7 -30 -20 25 -20 24 -2
-25 c-1 -18 -3 -20 -6 -7 -4 17 -6 17 -17 1 -12 -16 -13 -15 -19 5 -5 21 0 24
46 24 9 0 17 4 17 10 0 17 7 4 14 -27z m270 8 c3 -8 2 -12 -4 -9 -6 3 -10 10
-10 16 0 14 7 11 14 -7z m49 -1 c-7 -2 -19 -2 -25 0 -7 3 -2 5 12 5 14 0 19
-2 13 -5z m-346 -75 c-3 -7 -5 -2 -5 12 0 14 2 19 5 13 2 -7 2 -19 0 -25z m43
22 c0 -5 -2 -10 -4 -10 -3 0 -8 5 -11 10 -3 6 -1 10 4 10 6 0 11 -4 11 -10z
m1361 -41 c-23 -25 -26 -45 -11 -84 5 -14 6 -24 1 -21 -5 4 -11 1 -13 -6 -3
-7 -7 -5 -11 6 -4 10 -3 15 3 11 6 -3 10 -2 10 2 0 5 -15 13 -32 18 -25 8 -32
15 -30 29 3 17 2 18 -12 7 -26 -22 -28 -7 -3 16 61 57 148 76 98 22z m-1451
11 c0 -5 -5 -10 -11 -10 -5 0 -7 5 -4 10 3 6 8 10 11 10 2 0 4 -4 4 -10z m360
0 c-8 -5 -22 -9 -30 -9 -10 0 -8 3 5 9 27 12 43 12 25 0z m807 -22 c-3 -8 -6
-5 -6 6 -1 11 2 17 5 13 3 -3 4 -12 1 -19z m-450 -20 c-3 -8 -6 -5 -6 6 -1 11
2 17 5 13 3 -3 4 -12 1 -19z m460 -20 c-3 -8 -6 -5 -6 6 -1 11 2 17 5 13 3 -3
4 -12 1 -19z m311 -55 c-4 -26 -4 -26 -16 11 -9 31 -9 43 1 55 10 12 12 10 15
-12 2 -15 2 -39 0 -54z m-351 25 c-3 -8 -6 -5 -6 6 -1 11 2 17 5 13 3 -3 4
-12 1 -19z m240 -7 c43 -45 50 -55 45 -69 -2 -6 1 -12 7 -12 6 0 11 -5 11 -11
0 -6 -6 -9 -14 -6 -10 4 -12 0 -9 -14 3 -10 10 -19 15 -19 5 0 7 -4 3 -9 -3
-5 -1 -12 4 -15 5 -3 11 1 15 9 3 8 11 15 18 15 9 0 10 -3 2 -8 -16 -10 -28
-52 -15 -52 6 0 11 4 11 8 0 5 7 9 15 9 8 0 15 -7 15 -15 0 -8 -6 -12 -14 -9
-7 3 -19 0 -25 -6 -8 -8 -11 -8 -11 1 0 7 -7 12 -15 12 -8 0 -15 -8 -15 -17 0
-15 -2 -16 -10 -3 -6 9 -5 17 2 21 15 10 0 29 -23 29 -15 0 -19 -7 -19 -32 0
-50 -9 -27 -13 33 -3 38 1 59 11 72 9 9 10 17 4 17 -6 0 -12 -6 -15 -12 -2 -7
-8 -9 -13 -5 -5 5 -1 13 9 18 14 8 15 14 6 31 -10 18 -9 20 5 15 8 -3 18 -2
21 3 4 6 -1 10 -9 10 -8 0 -19 6 -23 14 -4 7 -15 16 -23 19 -12 4 -12 6 2 6
10 1 30 -12 45 -28z m-603 -17 c3 -8 2 -12 -4 -9 -6 3 -10 10 -10 16 0 14 7
11 14 -7z m690 -30 c3 -8 2 -12 -4 -9 -6 3 -10 10 -10 16 0 14 7 11 14 -7z
m-1374 2 c0 -3 -4 -8 -10 -11 -5 -3 -10 -1 -10 4 0 6 5 11 10 11 6 0 10 -2 10
-4z m1067 -28 c-3 -8 -6 -5 -6 6 -1 11 2 17 5 13 3 -3 4 -12 1 -19z m-1050
-24 c-3 -3 -12 -4 -19 -1 -8 3 -5 6 6 6 11 1 17 -2 13 -5z m983 -25 c0 -6 -4
-7 -10 -4 -5 3 -10 11 -10 16 0 6 5 7 10 4 6 -3 10 -11 10 -16z m-993 -11 c-3
-8 -6 -5 -6 6 -1 11 2 17 5 13 3 -3 4 -12 1 -19z m50 -4 c-3 -3 -12 -4 -19 -1
-8 3 -5 6 6 6 11 1 17 -2 13 -5z m883 -32 c0 -5 -7 -9 -15 -9 -8 0 -12 4 -9 9
3 4 9 8 15 8 5 0 9 -4 9 -8z m38 -31 c12 -1 22 -5 22 -11 0 -5 -6 -7 -14 -4
-8 3 -16 -3 -19 -15 -5 -21 12 -25 25 -6 4 6 8 0 8 -13 0 -20 -4 -22 -22 -16
-13 3 -23 7 -24 8 0 0 -8 15 -16 32 -14 29 -14 32 1 29 9 -2 26 -4 39 -4z
m-43 -59 c-6 -7 -32 11 -44 30 -12 20 -11 20 17 -3 16 -13 28 -25 27 -27z m-5
-37 c0 -8 -5 -15 -11 -15 -5 0 -8 4 -5 9 4 5 0 12 -6 14 -8 3 -6 6 5 6 9 1 17
-6 17 -14z m50 5 c0 -5 -3 -9 -7 -9 -21 3 -24 -3 -12 -18 12 -17 12 -17 -5 -1
-10 9 -15 21 -12 27 9 14 36 14 36 1z m-206 -6 c9 -3 12 -12 9 -22 -5 -11 -2
-14 9 -9 21 8 30 -17 22 -59 -7 -37 -21 -44 -31 -16 -12 33 -25 44 -35 30 -5
-8 -6 -2 -2 16 5 21 4 27 -5 22 -6 -4 -11 -2 -11 4 0 7 8 9 20 5 11 -4 20 -2
20 4 0 6 -3 10 -7 10 -17 -3 -24 2 -18 11 7 12 8 12 29 4z m-134 -59 c10 -12
10 -15 -2 -15 -8 0 -15 7 -15 15 0 8 1 15 2 15 2 0 8 -7 15 -15z m215 -5 c-3
-5 -12 -10 -18 -10 -7 0 -6 4 3 10 19 12 23 12 15 0z m-177 -32 c18 -18 14
-32 -4 -17 -15 12 -16 11 -9 -11 7 -22 6 -23 -9 -11 -9 8 -14 16 -11 19 3 3 0
11 -6 19 -9 10 -7 13 8 13 10 0 24 -5 31 -12z m167 2 c3 -5 -1 -10 -10 -10 -9
0 -13 5 -10 10 3 6 8 10 10 10 2 0 7 -4 10 -10z m-335 -102 c0 -6 -7 -5 -15 2
-8 7 -15 17 -15 22 0 6 7 5 15 -2 8 -7 15 -17 15 -22z m-282 -183 c-3 -3 -9 2
-12 12 -6 14 -5 15 5 6 7 -7 10 -15 7 -18z"/>
<path d="M591 3054 c0 -11 3 -14 6 -6 3 7 2 16 -1 19 -3 4 -6 -2 -5 -13z"/>
<path d="M847 2934 c-3 -3 -3 -12 -1 -19 3 -7 1 -16 -5 -19 -6 -4 -7 -14 -4
-23 4 -11 3 -14 -6 -9 -6 4 -9 16 -6 27 4 10 2 19 -3 19 -15 0 -34 -28 -27
-40 3 -5 -1 -10 -9 -10 -13 0 -16 -12 -16 -60 0 -62 5 -69 41 -49 14 7 20 19
19 37 -3 43 2 50 9 13 3 -19 12 -36 20 -39 11 -4 13 3 7 29 -6 30 -5 31 7 15
8 -11 16 -15 19 -10 9 14 -11 56 -22 49 -5 -3 -10 -1 -10 4 0 6 5 11 10 11 13
0 13 37 0 45 -5 3 -7 12 -3 20 5 15 -8 21 -20 9z m-50 -156 c-2 -13 -4 -5 -4
17 -1 22 1 32 4 23 2 -10 2 -28 0 -40z"/>
<path d="M795 2470 c3 -5 8 -10 11 -10 2 0 4 5 4 10 0 6 -5 10 -11 10 -5 0 -7
-4 -4 -10z"/>
<path d="M1266 2532 c-3 -5 1 -9 9 -9 8 0 12 4 9 9 -3 4 -7 8 -9 8 -2 0 -6 -4
-9 -8z"/>
<path d="M1220 2497 c-25 -10 -25 -11 -3 -14 28 -5 62 11 42 19 -8 3 -25 1
-39 -5z"/>
<path d="M1282 2490 c-14 -23 -15 -30 -3 -30 8 0 24 41 18 47 -2 1 -8 -7 -15
-17z"/>
<path d="M650 2435 c0 -8 4 -15 10 -15 5 0 7 7 4 15 -4 8 -8 15 -10 15 -2 0
-4 -7 -4 -15z"/>
<path d="M225 2360 c3 -5 1 -10 -5 -10 -6 0 -8 -5 -5 -10 4 -6 11 -8 16 -5 12
8 11 35 -2 35 -5 0 -7 -4 -4 -10z"/>
<path d="M1643 2121 c-10 -15 -9 -20 2 -25 11 -4 15 2 15 19 0 30 -2 31 -17 6z"/>
<path d="M1637 2013 c-4 -3 -7 -13 -7 -22 1 -13 3 -13 11 2 11 19 8 33 -4 20z"/>
<path d="M1916 2947 c3 -10 9 -15 12 -12 3 3 0 11 -7 18 -10 9 -11 8 -5 -6z"/>
<path d="M450 2690 c-9 -6 -10 -10 -3 -10 6 0 15 5 18 10 8 12 4 12 -15 0z"/>
<path d="M3880 1760 c-35 -7 -35 -7 -5 -9 17 0 37 4 45 9 17 11 11 11 -40 0z"/>
</g>
</svg>
